HIERARCHY
ROOT joint_Root
{
	OFFSET 0.0 0.0 0.0
	CHANNELS 6 Xposition Yposition Zposition Zrotation Xrotation Yrotation 
	JOINT Hips
	{
		OFFSET 4.5925 91.4895 -427.239
		CHANNELS 6 Xposition Yposition Zposition Zrotation Xrotation Yrotation 
		JOINT Spine
		{
			OFFSET 15.7357 0.0 0.0
			CHANNELS 6 Xposition Yposition Zposition Zrotation Xrotation Yrotation 
			JOINT Chest
			{
				OFFSET 8.98455 -0.406207 0.0
				CHANNELS 6 Xposition Yposition Zposition Zrotation Xrotation Yrotation 
				JOINT Neck
				{
					OFFSET 16.3773 0.0 0.0
					CHANNELS 6 Xposition Yposition Zposition Zrotation Xrotation Yrotation 
					JOINT Head
					{
						OFFSET 6.45672 0.0 0.0
						CHANNELS 6 Xposition Yposition Zposition Zrotation Xrotation Yrotation 
						End Site
						{
							OFFSET 0.0 0.0 0.0
						}
					}
				}
				JOINT Shoulder_L
				{
					OFFSET 12.9942 -0.242716 4.98039
					CHANNELS 6 Xposition Yposition Zposition Zrotation Xrotation Yrotation 
					JOINT UpperArm_L
					{
						OFFSET 5.34809 0.0 0.0
						CHANNELS 6 Xposition Yposition Zposition Zrotation Xrotation Yrotation 
						JOINT LowerArm_L
						{
							OFFSET 24.3286 1.87007e-05 0.0
							CHANNELS 6 Xposition Yposition Zposition Zrotation Xrotation Yrotation 
							JOINT Hand_L
							{
								OFFSET 22.2916 0.0 0.0
								CHANNELS 6 Xposition Yposition Zposition Zrotation Xrotation Yrotation 
								End Site
								{
									OFFSET 0.0 0.0 0.0
								}
							}
						}
					}
				}
				JOINT Shoulder_R
				{
					OFFSET 12.9945 -0.242716 -4.98039
					CHANNELS 6 Xposition Yposition Zposition Zrotation Xrotation Yrotation 
					JOINT UpperArm_R
					{
						OFFSET -5.34813 0.0 0.0
						CHANNELS 6 Xposition Yposition Zposition Zrotation Xrotation Yrotation 
						JOINT LowerArm_R
						{
							OFFSET -24.3289 0.000322201 0.0
							CHANNELS 6 Xposition Yposition Zposition Zrotation Xrotation Yrotation 
							JOINT Hand_R
							{
								OFFSET -22.2915 -0.000108084 0.0
								CHANNELS 6 Xposition Yposition Zposition Zrotation Xrotation Yrotation 
								End Site
								{
									OFFSET 0.0 0.0 0.0
								}
							}
						}
					}
				}
			}
		}
		JOINT UpperLeg_L
		{
			OFFSET -2.19248 -6.46944 0.0
			CHANNELS 6 Xposition Yposition Zposition Zrotation Xrotation Yrotation 
			JOINT LowerLeg_L
			{
				OFFSET 39.0811 0.0 -1.23785e-05
				CHANNELS 6 Xposition Yposition Zposition Zrotation Xrotation Yrotation 
				JOINT Foot_L
				{
					OFFSET 40.9854 0.0 -1.26872e-05
					CHANNELS 6 Xposition Yposition Zposition Zrotation Xrotation Yrotation 
					JOINT Toes_L
					{
						OFFSET 11.7543 0.0 0.0
						CHANNELS 6 Xposition Yposition Zposition Zrotation Xrotation Yrotation 
						End Site
						{
							OFFSET 0.0 0.0 0.0
						}
					}
				}
			}
		}
		JOINT UpperLeg_R
		{
			OFFSET -2.19251 6.46944 0.0
			CHANNELS 6 Xposition Yposition Zposition Zrotation Xrotation Yrotation 
			JOINT LowerLeg_R
			{
				OFFSET -39.0811 -0.00228153 -0.0401928
				CHANNELS 6 Xposition Yposition Zposition Zrotation Xrotation Yrotation 
				JOINT Foot_R
				{
					OFFSET -40.9854 0.0 0.0
					CHANNELS 6 Xposition Yposition Zposition Zrotation Xrotation Yrotation 
					JOINT Toes_R
					{
						OFFSET -11.7543 0.0 0.0
						CHANNELS 6 Xposition Yposition Zposition Zrotation Xrotation Yrotation 
						End Site
						{
							OFFSET 0.0 0.0 0.0
						}
					}
				}
			}
		}
	}
}
MOTION
Frames:	4
Frame Time:	0.0333333
0.000000 0.000000 0.000000 0.000000 0.000000 -0.000000 -0.583859 91.427700 0.836152 89.397700 -2.538110 5.281400 15.735700 0.000005 -0.000001 78.943300 87.259200 -78.546000 8.984550 -0.406207 -0.000000 -2.382550 -1.086090 0.772069 16.377300 -0.000001 -0.000001 11.161500 -4.063840 2.206690 6.456720 -0.000001 -0.000000 13.200000 -4.623420 -2.688860 12.994200 -0.242716 4.980390 -84.708800 -10.839100 -63.780400 5.348090 -0.000007 -0.000001 -64.857200 -53.118500 -106.082000 24.328600 0.000019 0.000005 17.185200 14.135200 -51.703900 22.291600 -0.000001 0.000005 27.011100 5.241380 1.659490 12.994500 -0.242716 -4.980390 92.951800 -7.693350 -68.934000 -5.348130 -0.000001 -0.000004 -59.511300 -46.663600 -103.575000 -24.328900 0.000322 -0.000009 3.821430 2.475210 -57.123800 -22.291500 -0.000108 -0.000004 27.704900 5.519450 -7.338840 -2.192480 -6.469440 -0.000000 -174.846000 -13.508700 -1.714370 39.081100 -0.000007 -0.000012 -0.182520 0.365696 26.524100 40.985400 -0.000006 -0.000013 0.107554 7.162410 -69.240100 11.754300 -0.000000 0.000003 -0.000184 -0.001723 -16.642700 -2.192510 6.469440 -0.000001 174.134000 23.419900 179.846000 -39.081100 -0.002282 -0.040193 -0.137001 0.291894 25.673400 -40.985400 0.000008 0.000006 5.195590 19.506800 -70.450600 -11.754300 -0.000006 -0.000006 -0.000792 -0.012407 -17.077800
0.000000 0.000000 0.000000 0.000000 0.000000 -0.000000 -0.585391 91.445200 0.744412 89.418000 -2.625040 5.212560 15.735700 0.000005 -0.000001 79.119700 87.256500 -78.733800 8.984550 -0.406207 -0.000000 -2.374190 -1.069520 0.749632 16.377300 -0.000001 -0.000001 11.215100 -4.097830 2.196090 6.456720 -0.000001 -0.000000 12.924800 -4.659240 -2.699730 12.994200 -0.242716 4.980390 -84.721500 -10.739500 -63.627800 5.348090 -0.000007 -0.000001 -65.198200 -53.232600 -106.523000 24.328600 0.000019 0.000005 17.156600 14.023800 -51.870400 22.291600 -0.000001 0.000005 26.965400 5.240200 1.690260 12.994500 -0.242716 -4.980390 92.947100 -7.656170 -68.872600 -5.348130 -0.000001 -0.000004 -59.814900 -46.750900 -103.729000 -24.328900 0.000322 -0.000009 3.765640 2.409710 -57.438100 -22.291500 -0.000108 -0.000004 27.564700 5.518380 -7.293190 -2.192480 -6.469440 -0.000000 -174.904000 -13.547900 -1.806270 39.081100 -0.000007 -0.000012 -0.177412 0.356509 26.456900 40.985400 -0.000006 -0.000013 0.094272 7.091430 -69.149800 11.754300 -0.000000 0.000003 -0.000179 -0.001687 -16.641400 -2.192510 6.469440 -0.000001 174.182000 23.328400 179.693000 -39.081100 -0.002282 -0.040193 -0.139474 0.297505 25.638400 -40.985400 0.000008 0.000006 5.120330 19.520500 -70.331000 -11.754300 -0.000006 -0.000006 -0.000707 -0.011159 -17.027100
0.000000 0.000000 0.000000 0.000000 0.000000 -0.000000 -0.583077 91.453600 0.670502 89.366800 -2.660400 5.126230 15.735700 0.000005 -0.000001 78.990700 87.258900 -78.591800 8.984550 -0.406207 -0.000000 -2.381080 -1.081900 0.775260 16.377300 -0.000001 -0.000001 11.313500 -4.116590 2.099280 6.456720 -0.000001 -0.000000 12.774600 -4.661690 -2.641220 12.994200 -0.242716 4.980390 -84.702000 -10.692800 -63.444700 5.348090 -0.000007 -0.000001 -65.552900 -53.068500 -106.670000 24.328600 0.000019 0.000005 17.065900 13.719100 -52.312300 22.291600 -0.000001 0.000005 27.128500 5.238430 1.736420 12.994500 -0.242716 -4.980390 92.929900 -7.593260 -68.827500 -5.348130 -0.000001 -0.000004 -59.582000 -46.942000 -103.465000 -24.328900 0.000322 -0.000009 3.899130 2.460340 -57.804600 -22.291500 -0.000108 -0.000004 27.689600 5.514280 -7.120320 -2.192480 -6.469440 -0.000000 -174.899000 -13.516300 -1.971990 39.081100 -0.000007 -0.000012 -0.176361 0.353811 26.494600 40.985400 -0.000006 -0.000013 0.084126 7.014220 -69.111100 11.754300 -0.000000 0.000003 -0.000180 -0.001698 -16.641800 -2.192510 6.469440 -0.000001 174.304000 23.323800 179.547000 -39.081100 -0.002282 -0.040193 -0.136824 0.292336 25.611400 -40.985400 0.000008 0.000006 5.132440 19.536600 -70.261900 -11.754300 -0.000006 -0.000006 -0.000727 -0.011446 -17.038800
0.000000 0.000000 0.000000 0.000000 0.000000 -0.000000 -0.576309 91.461600 0.613253 89.371800 -2.706370 5.135050 15.735700 0.000005 -0.000001 79.163400 87.233200 -78.768900 8.984550 -0.406207 -0.000000 -2.327380 -1.074800 0.767231 16.377300 -0.000001 -0.000001 11.366400 -4.119320 2.083510 6.456720 -0.000001 -0.000000 12.618900 -4.619880 -2.747760 12.994200 -0.242716 4.980390 -84.711800 -10.637000 -63.368800 5.348090 -0.000007 -0.000001 -65.270800 -53.008500 -105.937000 24.328600 0.000019 0.000005 17.205300 13.348500 -53.292100 22.291600 -0.000001 0.000005 27.342200 5.236660 1.782530 12.994500 -0.242716 -4.980390 92.910600 -7.510340 -68.744200 -5.348130 -0.000001 -0.000004 -58.803900 -47.169100 -102.717000 -24.328900 0.000322 -0.000009 3.781620 2.335770 -58.351200 -22.291500 -0.000108 -0.000004 27.546600 5.507770 -6.849530 -2.192480 -6.469440 -0.000000 -174.925000 -13.452500 -1.994180 39.081100 -0.000007 -0.000012 -0.179148 0.359709 26.475100 40.985400 -0.000006 -0.000013 0.062878 6.911260 -69.063600 11.754300 -0.000000 0.000003 -0.000171 -0.001619 -16.638900 -2.192510 6.469440 -0.000001 174.314000 23.274000 179.504000 -39.081100 -0.002282 -0.040193 -0.137599 0.294126 25.598300 -40.985400 0.000008 0.000006 5.062950 19.538800 -70.181400 -11.754300 -0.000006 -0.000006 -0.000711 -0.011220 -17.029600
